# xmcd
#
# Track frame offsets: 
#        150
#        16223
#        30333
#        44558
#        59833
#        77316
#        91881
#        108588
#        126061
#        140901
#        154626
#        170731
#        186759
#        202909
#
# Disc length: 2841 seconds
#
# Revision: 3
# Processed by: cddbd v1.5.2PL0 Copyright (c) Steve Scherf et al.
# Submitted via: ExactAudioCopy v0.95a5
#
DISCID=b80b170e
DTITLE=Various Artist - HOT HITS COUNTRY VOL 62
DYEAR=1900
DGENRE=Country
TTITLE0=Brooks and Dunn - A Man This Lonely
TTITLE1=Rick Trevino - Running Out Of Reasons To Run
TTITLE2=Collin Raye - What If Jesus Comes Back Like That
TTITLE3=Toby Keith - Me Too
TTITLE4=Crystal Bernard - Have We Forgotten What Love Is
TTITLE5=BR5 49 - Even If It's Wrong
TTITLE6=John Berry - She's Taken A Shine
TTITLE7=Shania Twain - God Bless The Child
TTITLE8=Chris Ward - When You Get To Be With You
TTITLE9=George Jones - Billy B Bad
TTITLE10=Stephanie Bentley - Once I Was The Light Of Your Life
TTITLE11=Tony Toliver - He's On The Way Home
TTITLE12=David Ball - I'll Never Make It Through This Fall
TTITLE13=Rhett Akins - Every Cowboy's Dream
EXTD=
EXTT0=
EXTT1=
EXTT2=
EXTT3=
EXTT4=
EXTT5=
EXTT6=
EXTT7=
EXTT8=
EXTT9=
EXTT10=
EXTT11=
EXTT12=
EXTT13=
PLAYORDER=
